<svg width="1120" height="834" viewBox="0 0 1120 834" fill="none" xmlns="http://www.w3.org/2000/svg">
<path d="M1119.28 732.906H0V733.466H1119.28V732.906Z" fill="#EBEBEB"/>
<path d="M1007.13 754.218H948.929V754.777H1007.13V754.218Z" fill="#EBEBEB"/>
<path d="M796.996 748.151H675.89V748.711H796.996V748.151Z" fill="#EBEBEB"/>
<path d="M967.061 775.014H887.793V775.573H967.061V775.014Z" fill="#EBEBEB"/>
<path d="M170.467 771.253H117.436V771.813H170.467V771.253Z" fill="#EBEBEB"/>
<path d="M248.235 771.253H190.391V771.813H248.235V771.253Z" fill="#EBEBEB"/>
<path d="M593.533 761.806H471.397V762.366H593.533V761.806Z" fill="#EBEBEB"/>
<path d="M530.54 633.066H98.295C94.9088 633.06 91.6634 631.711 89.2711 629.315C86.8788 626.918 85.5352 623.67 85.5352 620.284V12.6703C85.5646 9.30354 86.9213 6.08437 89.3104 3.71203C91.6995 1.33969 94.9281 0.00576741 98.295 0H530.54C533.93 0 537.181 1.34669 539.578 3.74382C541.975 6.14095 543.322 9.39216 543.322 12.7822V620.284C543.322 623.674 541.975 626.926 539.578 629.323C537.181 631.72 533.93 633.066 530.54 633.066V633.066ZM98.295 0.447715C95.0572 0.453645 91.9541 1.74399 89.6668 4.03552C87.3795 6.32706 86.0948 9.43253 86.0948 12.6703V620.284C86.0948 623.522 87.3795 626.627 89.6668 628.919C91.9541 631.211 95.0572 632.501 98.295 632.507H530.54C533.779 632.501 536.885 631.211 539.176 628.92C541.467 626.629 542.756 623.524 542.762 620.284V12.6703C542.756 9.43047 541.467 6.32505 539.176 4.03416C536.885 1.74326 533.779 0.453632 530.54 0.447715H98.295Z" fill="#EBEBEB"/>
<path d="M1014.76 633.066H582.498C579.109 633.06 575.862 631.712 573.466 629.316C571.07 626.92 569.721 623.672 569.715 620.284V12.6703C569.751 9.30149 571.112 6.08236 573.505 3.71063C575.898 1.33891 579.129 0.00570452 582.498 0H1014.76C1018.13 0.0116506 1021.35 1.34817 1023.73 3.71989C1026.12 6.0916 1027.47 9.3074 1027.5 12.6703V620.284C1027.5 623.667 1026.16 626.911 1023.77 629.307C1021.39 631.703 1018.15 633.055 1014.76 633.066V633.066ZM582.498 0.447715C579.258 0.453632 576.152 1.74326 573.861 4.03416C571.571 6.32505 570.281 9.43047 570.275 12.6703V620.284C570.281 623.524 571.571 626.629 573.861 628.92C576.152 631.211 579.258 632.501 582.498 632.507H1014.76C1018 632.501 1021.11 631.211 1023.4 628.92C1025.69 626.629 1026.98 623.524 1026.99 620.284V12.6703C1026.98 9.43047 1025.69 6.32505 1023.4 4.03416C1021.11 1.74326 1018 0.453632 1014.76 0.447715H582.498Z" fill="#EBEBEB"/>
<path d="M277.494 721.512H304.894L304.894 392.242H277.494L277.494 721.512Z" fill="#F0F0F0"/>
<path d="M145.866 732.862H297.64V721.512H145.866V732.862Z" fill="#F0F0F0"/>
<path d="M277.492 392.241H138.656V721.512H277.492V392.241Z" fill="#F5F5F5"/>
<path d="M262.696 563.693H153.454V622.478H262.696V563.693Z" fill="#F0F0F0"/>
<path d="M262.696 640.655H153.454V699.44H262.696V640.655Z" fill="#F0F0F0"/>
<path d="M192.717 597.138H223.408C225.2 597.138 226.654 595.684 226.654 593.892V592.325C226.654 590.532 225.2 589.079 223.408 589.079H192.717C190.924 589.079 189.471 590.532 189.471 592.325V593.892C189.471 595.684 190.924 597.138 192.717 597.138Z" fill="#F5F5F5"/>
<path d="M192.717 674.077H223.408C225.2 674.077 226.654 672.624 226.654 670.831V669.264C226.654 667.471 225.2 666.018 223.408 666.018H192.717C190.924 666.018 189.471 667.471 189.471 669.264V670.831C189.471 672.624 190.924 674.077 192.717 674.077Z" fill="#F5F5F5"/>
<path d="M262.696 410.396H153.454V469.181H262.696V410.396Z" fill="#F0F0F0"/>
<path d="M262.696 486.754H153.454V545.538H262.696V486.754Z" fill="#F0F0F0"/>
<path d="M192.717 443.84H223.408C225.2 443.84 226.654 442.387 226.654 440.595V439.028C226.654 437.235 225.2 435.782 223.408 435.782H192.717C190.924 435.782 189.471 437.235 189.471 439.028V440.595C189.471 442.387 190.924 443.84 192.717 443.84Z" fill="#F5F5F5"/>
<path d="M192.717 520.176H223.408C225.2 520.176 226.654 518.722 226.654 516.93V515.363C226.654 513.57 225.2 512.117 223.408 512.117H192.717C190.924 512.117 189.471 513.57 189.471 515.363V516.93C189.471 518.722 190.924 520.176 192.717 520.176Z" fill="#F5F5F5"/>
<path d="M429.424 721.512H511.669L511.669 392.242H429.424L429.424 721.512Z" fill="#F0F0F0"/>
<path d="M297.797 732.862H503.23V721.512H297.797V732.862Z" fill="#F0F0F0"/>
<path d="M429.423 392.241H290.587V721.512H429.423V392.241Z" fill="#F5F5F5"/>
<path d="M414.626 563.693H305.384V622.478H414.626V563.693Z" fill="#F0F0F0"/>
<path d="M414.626 640.655H305.384V699.44H414.626V640.655Z" fill="#F0F0F0"/>
<path d="M344.649 597.138H375.34C377.133 597.138 378.586 595.684 378.586 593.892V592.325C378.586 590.532 377.133 589.079 375.34 589.079H344.649C342.857 589.079 341.403 590.532 341.403 592.325V593.892C341.403 595.684 342.857 597.138 344.649 597.138Z" fill="#F5F5F5"/>
<path d="M344.649 674.077H375.34C377.133 674.077 378.586 672.624 378.586 670.831V669.264C378.586 667.471 377.133 666.018 375.34 666.018H344.649C342.857 666.018 341.403 667.471 341.403 669.264V670.831C341.403 672.624 342.857 674.077 344.649 674.077Z" fill="#F5F5F5"/>
<path d="M414.626 410.396H305.384V469.181H414.626V410.396Z" fill="#F0F0F0"/>
<path d="M414.626 486.754H305.384V545.538H414.626V486.754Z" fill="#F0F0F0"/>
<path d="M344.649 443.84H375.34C377.133 443.84 378.586 442.387 378.586 440.595V439.028C378.586 437.235 377.133 435.782 375.34 435.782H344.649C342.857 435.782 341.403 437.235 341.403 439.028V440.595C341.403 442.387 342.857 443.84 344.649 443.84Z" fill="#F5F5F5"/>
<path d="M344.649 520.176H375.34C377.133 520.176 378.586 518.722 378.586 516.93V515.363C378.586 513.57 377.133 512.117 375.34 512.117H344.649C342.857 512.117 341.403 513.57 341.403 515.363V516.93C341.403 518.722 342.857 520.176 344.649 520.176Z" fill="#F5F5F5"/>
<path d="M614.867 708.484H960.658L960.658 54.1732H614.867V708.484Z" fill="#E6E6E6"/>
<path d="M607.971 708.484H953.763L953.763 54.1732H607.971V708.484Z" fill="#F5F5F5"/>
<path d="M941.451 694.605V68.0301L620.351 68.0301V694.605H941.451Z" fill="white"/>
<path d="M625.544 694.627V68.0524H620.35V694.627H625.544Z" fill="#E6E6E6"/>
<path d="M613.076 271.247L948.659 271.247V252.622L613.076 252.622V271.247Z" fill="#F5F5F5"/>
<path d="M230.662 315.772H416.754L416.754 39.8464H230.662L230.662 315.772Z" fill="#E0E0E0"/>
<path d="M219.358 315.772H413.173L413.173 39.8464H219.358L219.358 315.772Z" fill="#F5F5F5"/>
<path d="M235.587 61.6054L235.587 294.036H396.92V61.6054H235.587Z" fill="white"/>
<path d="M326.204 206.284C320.854 210.761 311.631 224.192 290.701 203.239C269.77 182.286 283.112 173.086 287.679 167.758C292.245 162.43 268.517 129.702 256.675 147.208C244.833 164.714 253.966 185.711 281.12 212.843C308.273 239.974 329.271 249.13 346.732 237.288C364.193 225.446 331.555 201.74 326.204 206.284Z" fill="#F5F5F5"/>
<path d="M340.664 199.367C340.07 199.367 339.501 199.131 339.081 198.711C338.661 198.291 338.426 197.722 338.426 197.128C338.414 186.101 334.028 175.528 326.23 167.731C318.433 159.933 307.86 155.547 296.833 155.535C296.239 155.535 295.67 155.3 295.25 154.88C294.83 154.46 294.594 153.891 294.594 153.297C294.594 152.703 294.83 152.134 295.25 151.714C295.67 151.294 296.239 151.058 296.833 151.058C309.048 151.07 320.759 155.928 329.396 164.565C338.033 173.202 342.891 184.913 342.903 197.128C342.903 197.722 342.667 198.291 342.247 198.711C341.827 199.131 341.258 199.367 340.664 199.367Z" fill="#F5F5F5"/>
<path d="M359.491 196.792C358.897 196.792 358.328 196.556 357.908 196.137C357.488 195.717 357.252 195.147 357.252 194.554C357.234 179.216 351.135 164.511 340.292 153.663C329.448 142.815 314.745 136.71 299.408 136.687C298.814 136.687 298.244 136.451 297.825 136.031C297.405 135.611 297.169 135.042 297.169 134.448C297.169 133.855 297.405 133.285 297.825 132.865C298.244 132.446 298.814 132.21 299.408 132.21C315.935 132.227 331.78 138.802 343.464 150.491C355.148 162.179 361.717 178.027 361.729 194.554C361.729 195.147 361.493 195.717 361.074 196.137C360.654 196.556 360.084 196.792 359.491 196.792Z" fill="#F5F5F5"/>
<path d="M380.712 196.994C380.119 196.994 379.549 196.758 379.129 196.338C378.71 195.918 378.474 195.349 378.474 194.755C378.444 173.761 370.09 153.636 355.242 138.793C340.395 123.95 320.267 115.601 299.273 115.577C298.68 115.577 298.11 115.341 297.69 114.921C297.271 114.502 297.035 113.932 297.035 113.339C297.035 112.745 297.271 112.175 297.69 111.756C298.11 111.336 298.68 111.1 299.273 111.1C321.455 111.124 342.721 119.944 358.408 135.627C374.095 151.309 382.921 172.574 382.951 194.755C382.951 195.349 382.715 195.918 382.295 196.338C381.875 196.758 381.306 196.994 380.712 196.994Z" fill="#F5F5F5"/>
<path d="M143.447 262.942C148.439 264.889 162.027 262.808 157.505 269.926C154.814 273.758 151.697 277.273 148.215 280.403C143.156 285.238 144.118 290.476 150.095 292.379C151.321 292.701 152.45 293.316 153.386 294.17C156.139 297.214 149.648 301.333 146.446 304.378C143.245 307.422 141.969 310.467 144.342 312.75C146.715 315.033 152.356 314.339 156.654 314.989C167.019 316.802 156.363 327.883 157.46 333.591C158.221 337.486 162.295 338.561 167.825 339.12C172.302 339.568 178.368 339.881 178.615 343.463C178.838 346.575 173.623 350.179 172.257 353.358C171.604 354.745 171.352 356.287 171.53 357.811C171.708 359.334 172.309 360.777 173.264 361.976C175.335 364.334 178.206 365.841 181.323 366.207C186.45 367.058 194.195 366.207 194.576 370.684C194.732 372.699 192.941 374.467 194.195 376.325C195.775 377.965 197.92 378.942 200.194 379.056C205.114 379.646 210.09 379.579 214.991 378.855C221.013 378.004 229.9 373.885 226.632 369.901C225.365 368.692 223.721 367.956 221.976 367.819C220.521 367.595 216.312 367.953 215.775 367.192C215.238 366.431 216.693 363.521 216.76 362.446C216.896 359.493 216.288 356.552 214.991 353.895C213.199 350.136 210.536 346.859 207.223 344.336C205.813 343.217 203.53 342.389 203.239 340.754C202.948 339.12 204.269 337.329 205.724 335.718C207.962 333.21 211.611 330.815 212.887 328.129C214.924 323.898 209.999 322.555 205.455 321.592C201.336 320.719 195.919 319.6 197.307 315.727C198.336 312.929 202.881 310.623 204.246 307.892C206.059 304.243 201.605 304.087 198.404 302.788C197.538 302.553 196.737 302.125 196.061 301.536C195.385 300.947 194.851 300.212 194.5 299.386C194.148 298.561 193.989 297.667 194.033 296.771C194.077 295.875 194.324 295.001 194.755 294.215C197.217 287.879 212.193 278.925 204.537 274.829C202.59 273.777 200.776 273.418 199.612 271.851C198.448 270.284 198.18 268.068 196.546 266.546C193.971 264.128 188.643 263.725 185.845 261.487C180.137 256.875 192.561 248.705 181.211 246.757C178.887 246.547 176.638 245.821 174.63 244.63C173.6 243.892 172.772 240.288 171.608 240.019C166.437 238.9 157.102 246.735 154.169 249.108C150.655 252.018 137.47 260.614 143.447 262.942Z" fill="#E0E0E0"/>
<path d="M232.139 370.348C229.072 365.871 215.663 361.528 224.573 356.402C229.489 353.826 234.648 351.742 239.974 350.179C247.764 347.649 250.54 341.829 246.69 336.994C245.814 336.044 245.232 334.863 245.011 333.591C244.697 329.114 253.271 328.062 258.196 326.45C263.121 324.838 266.322 322.398 265.829 318.906C265.27 315.078 259.83 313.422 256.562 310.579C248.682 303.706 265.717 297.483 268.695 291.125C270.709 286.783 267.866 283.693 263.367 280.47C259.696 277.828 254.592 274.605 256.853 270.822C258.8 267.531 265.807 266.345 269.299 263.748C270.804 262.699 272.044 261.313 272.918 259.7C273.793 258.087 274.278 256.292 274.336 254.458C274.261 252.865 273.835 251.309 273.088 249.9C272.341 248.491 271.292 247.265 270.015 246.309C266.076 242.974 258.621 240.131 261.397 235.363C262.628 233.124 265.449 232.274 265.605 229.789C265.52 228.635 265.168 227.518 264.578 226.523C263.988 225.529 263.175 224.685 262.203 224.058C258.202 221.074 253.751 218.747 249.018 217.163C243.108 215.126 232.43 215.059 232.587 220.7C232.702 221.573 232.998 222.413 233.457 223.165C233.916 223.916 234.527 224.564 235.25 225.065C236.37 226.006 240.332 227.662 240.287 228.692C240.242 229.722 236.952 232.027 236.146 233.169C234.031 236.033 232.551 239.314 231.803 242.795C230.802 247.226 230.887 251.834 232.049 256.226C232.542 258.062 233.997 259.987 233.124 261.8C231.732 263.727 229.727 265.123 227.438 265.763C223.677 267.218 218.864 268.001 215.865 270.105C211.164 273.441 214.589 277.202 217.924 280.38C221.259 283.559 224.975 287.096 221.058 290.297C218.237 292.67 212.641 292.827 209.574 294.976C205.433 297.841 209.261 300.147 211.164 303.012C213.671 306.751 212.507 310.355 208.522 313.578C201.963 318.861 182.577 320.809 186.495 328.711C187.502 330.726 188.733 331.957 188.733 334.128C188.733 336.3 187.39 338.605 187.771 341.023C188.375 344.762 192.807 347.739 193.703 351.388C195.583 358.864 179.04 361.282 187.636 368.692C189.6 370.021 191.151 371.875 192.113 374.042C192.494 375.296 190.748 379.392 191.598 380.22C195.382 383.847 208.992 380.377 213.223 379.325C218.237 378.049 235.81 375.609 232.139 370.348Z" fill="#E6E6E6"/>
<path d="M248.839 346.06C248.839 346.06 247.652 392.242 202.612 392.242C157.572 392.242 156.408 346.06 156.408 346.06H248.839Z" fill="#F0F0F0"/>
<path d="M559.642 834C799.353 834 993.677 822.655 993.677 808.659C993.677 794.664 799.353 783.319 559.642 783.319C319.931 783.319 125.606 794.664 125.606 808.659C125.606 822.655 319.931 834 559.642 834Z" fill="#F5F5F5"/>
<path d="M439.163 52.2032H436.924C436.907 45.5027 438.279 38.8714 440.953 32.7277C444.755 23.9321 451.047 16.4412 459.054 11.1786C467.062 5.91593 476.434 3.11165 486.016 3.11145V5.35002C476.876 5.36359 467.939 8.04092 460.298 13.0544C452.656 18.0679 446.642 25.2001 442.991 33.5783C440.443 39.4559 439.139 45.7972 439.163 52.2032Z" fill="#DFE2ED"/>
<path d="M439.162 66.1721H436.924V96.2136H439.162V66.1721Z" fill="#DFE2ED"/>
<path d="M631.454 10.9466H486.037C463.239 10.9466 444.758 29.4279 444.758 52.2257V96.1912C444.758 118.989 463.239 137.47 486.037 137.47H631.454C654.252 137.47 672.733 118.989 672.733 96.1912V52.2257C672.733 29.4279 654.252 10.9466 631.454 10.9466Z" fill="#DFE2ED"/>
<path d="M584.938 128.046C599.063 161.378 637.499 174.272 659.795 177.16C637.924 146.738 638.887 119.987 638.887 119.987L584.938 128.046Z" fill="#DFE2ED"/>
<path d="M515.452 46.4503L495.507 41.5926L481.337 56.4343L487.09 76.1337L507.058 80.9914L521.228 66.1497L515.452 46.4503Z" fill="#E0E0E0"/>
<path d="M508.468 44.7489L488.5 39.8912L474.33 54.7329L480.106 74.4323L500.051 79.29L514.221 64.4483L508.468 44.7489Z" fill="white"/>
<path d="M625.523 79.2229L554.807 62.0307C553.892 56.7949 551.614 51.8928 548.2 47.8189C544.787 43.745 540.359 40.6434 535.364 38.8271C530.369 37.0107 524.983 36.5438 519.75 37.4735C514.517 38.4031 509.622 40.6965 505.558 44.1221L529.22 49.8753L534.973 69.5746L520.803 84.4387L497.074 78.5737C499.1 83.5095 502.396 87.8211 506.628 91.0703C510.86 94.3194 515.876 96.3903 521.168 97.0725C526.459 97.7547 531.837 97.0238 536.755 94.9542C541.672 92.8846 545.954 89.55 549.165 85.2894V85.2894L619.882 102.482C622.956 103.218 626.198 102.709 628.898 101.065C631.599 99.4209 633.54 96.7758 634.298 93.7064V93.7064C634.676 92.1791 634.748 90.5923 634.511 89.037C634.274 87.4816 633.733 85.9884 632.917 84.6428C632.102 83.2972 631.029 82.1258 629.76 81.1957C628.491 80.2657 627.051 79.5952 625.523 79.2229V79.2229Z" fill="white"/>
<path d="M622.367 98.6089C626.669 98.6089 630.157 95.1211 630.157 90.8187C630.157 86.5162 626.669 83.0284 622.367 83.0284C618.065 83.0284 614.577 86.5162 614.577 90.8187C614.577 95.1211 618.065 98.6089 622.367 98.6089Z" fill="#DFE2ED"/>
<path d="M694.627 695.858H673.361V749.606H694.627V695.858Z" fill="#E0E0E0"/>
<path d="M698.835 731.116H669.152L667.092 782.871C667.038 784.189 667.251 785.505 667.718 786.739C668.185 787.972 668.897 789.099 669.811 790.05C670.725 791.002 671.822 791.759 673.036 792.275C674.25 792.792 675.556 793.058 676.875 793.057H691.224C692.541 793.055 693.845 792.787 695.056 792.269C696.267 791.751 697.362 790.994 698.273 790.042C699.185 789.091 699.895 787.966 700.36 786.733C700.826 785.501 701.038 784.187 700.984 782.871L698.835 731.116Z" fill="#263238"/>
<path d="M757.889 791.646C757.264 791.644 756.649 791.487 756.098 791.191C755.548 790.894 755.079 790.466 754.733 789.945C751.788 785.452 747.769 781.764 743.039 779.215C738.309 776.667 733.019 775.338 727.646 775.35H640.342C634.97 775.338 629.679 776.667 624.95 779.215C620.22 781.764 616.201 785.452 613.256 789.945C612.688 790.746 611.832 791.296 610.867 791.477C609.902 791.659 608.904 791.458 608.085 790.917C607.265 790.377 606.688 789.539 606.475 788.58C606.262 787.622 606.43 786.618 606.943 785.781C610.589 780.261 615.55 775.734 621.38 772.608C627.21 769.481 633.727 767.854 640.342 767.873H727.646C734.269 767.838 740.796 769.453 746.639 772.572C752.482 775.691 757.456 780.215 761.113 785.737C761.489 786.307 761.703 786.968 761.734 787.65C761.764 788.332 761.609 789.01 761.286 789.611C760.962 790.213 760.482 790.715 759.895 791.065C759.309 791.416 758.639 791.601 757.957 791.602L757.889 791.646Z" fill="#263238"/>
<path d="M719.833 699.619H648.199C644.326 699.621 640.571 698.285 637.569 695.838C634.567 693.39 632.502 689.981 631.723 686.187L629.485 675.218H738.637L736.399 686.187C735.617 689.997 733.539 693.417 730.518 695.866C727.498 698.315 723.722 699.641 719.833 699.619V699.619Z" fill="#263238"/>
<path d="M527.249 670.674H613.12C645.667 670.571 677.088 658.749 701.63 637.372C726.173 615.995 742.194 586.494 746.762 554.269L770.312 388.436H922.042L898.492 554.269C893.924 586.494 877.903 615.995 853.36 637.372C828.818 658.749 797.397 670.571 764.85 670.674H527.249Z" fill="#263238"/>
<path d="M527.249 683.255C525.55 683.327 523.855 683.054 522.265 682.454C520.675 681.853 519.223 680.937 517.996 679.761C516.769 678.584 515.792 677.172 515.125 675.609C514.458 674.045 514.115 672.363 514.115 670.663C514.115 668.963 514.458 667.281 515.125 665.718C515.792 664.154 516.769 662.742 517.996 661.566C519.223 660.389 520.675 659.473 522.265 658.873C523.855 658.272 525.55 658 527.249 658.071H613.366C642.82 657.834 671.213 647.045 693.392 627.663C715.571 608.281 730.067 581.59 734.249 552.433L757.799 386.6C758.229 383.598 759.726 380.85 762.015 378.861C764.305 376.871 767.234 375.773 770.267 375.766H921.997C923.801 375.767 925.583 376.156 927.224 376.905C928.865 377.654 930.325 378.747 931.507 380.11C932.689 381.472 933.565 383.072 934.076 384.802C934.586 386.532 934.719 388.351 934.466 390.137L910.916 555.97C900.619 628.522 837.805 683.255 764.805 683.255H527.249ZM781.259 400.972L759.231 555.97C756.284 576.542 749.05 596.266 737.998 613.865C726.947 631.464 712.323 646.548 695.074 658.138H764.85C794.351 657.971 822.811 647.217 845.05 627.833C867.29 608.449 881.829 581.724 886.024 552.523L907.536 401.039L781.259 400.972Z" fill="#263238"/>
<path opacity="0.2" d="M678.957 683.255C677.259 683.327 675.564 683.054 673.974 682.453C672.384 681.853 670.931 680.937 669.704 679.761C668.477 678.584 667.501 677.172 666.834 675.608C666.167 674.045 665.823 672.363 665.823 670.663C665.823 668.963 666.167 667.281 666.834 665.718C667.501 664.154 668.477 662.742 669.704 661.565C670.931 660.389 672.384 659.473 673.974 658.873C675.564 658.272 677.259 657.999 678.957 658.071H764.851C794.352 657.904 822.812 647.15 845.051 627.766C867.291 608.382 881.831 581.657 886.025 552.456L909.574 386.623C909.747 384.935 910.259 383.3 911.079 381.815C911.898 380.33 913.01 379.026 914.346 377.98C915.682 376.935 917.215 376.17 918.853 375.731C920.492 375.293 922.202 375.19 923.882 375.428C925.561 375.666 927.176 376.241 928.628 377.118C930.08 377.995 931.34 379.156 932.332 380.531C933.325 381.907 934.03 383.469 934.404 385.123C934.779 386.778 934.815 388.491 934.512 390.16L910.962 555.992C900.665 628.544 837.851 683.277 764.851 683.277L678.957 683.255Z" fill="white"/>
<path d="M621.134 791.311C621.134 789.168 620.498 787.073 619.308 785.291C618.117 783.509 616.425 782.121 614.445 781.301C612.465 780.481 610.287 780.266 608.185 780.684C606.084 781.102 604.153 782.134 602.638 783.649C601.123 785.165 600.091 787.095 599.673 789.197C599.254 791.299 599.469 793.477 600.289 795.457C601.109 797.437 602.498 799.129 604.28 800.319C606.061 801.51 608.156 802.145 610.299 802.145C613.173 802.145 615.928 801.004 617.96 798.972C619.992 796.94 621.134 794.184 621.134 791.311Z" fill="#263238"/>
<path d="M768.523 791.311C768.523 789.168 767.887 787.073 766.697 785.291C765.506 783.509 763.814 782.121 761.834 781.301C759.855 780.481 757.676 780.266 755.574 780.684C753.473 781.102 751.542 782.134 750.027 783.649C748.512 785.165 747.48 787.095 747.062 789.197C746.644 791.299 746.858 793.477 747.678 795.457C748.498 797.437 749.887 799.129 751.669 800.319C753.451 801.51 755.545 802.145 757.688 802.145C760.562 802.145 763.318 801.004 765.349 798.972C767.381 796.94 768.523 794.184 768.523 791.311Z" fill="#263238"/>
<path d="M757.889 791.646C757.264 791.644 756.649 791.487 756.098 791.191C755.548 790.894 755.079 790.466 754.733 789.945C751.788 785.452 747.769 781.764 743.039 779.215C738.309 776.667 733.019 775.338 727.646 775.35H640.342C634.97 775.338 629.679 776.667 624.95 779.215C620.22 781.764 616.201 785.452 613.256 789.945C612.688 790.746 611.832 791.296 610.867 791.477C609.902 791.659 608.904 791.458 608.085 790.917C607.265 790.377 606.688 789.539 606.475 788.58C606.262 787.622 606.43 786.618 606.943 785.781C610.589 780.261 615.55 775.734 621.38 772.608C627.21 769.481 633.727 767.854 640.342 767.873H727.646C734.269 767.838 740.796 769.453 746.639 772.572C752.482 775.691 757.456 780.215 761.113 785.737C761.489 786.307 761.703 786.968 761.734 787.65C761.764 788.332 761.609 789.01 761.286 789.611C760.962 790.213 760.482 790.715 759.895 791.065C759.309 791.416 758.639 791.601 757.957 791.602L757.889 791.646Z" fill="#263238"/>
<path d="M720.953 798.026C720.154 798.02 719.377 797.765 718.731 797.295C718.084 796.825 717.601 796.165 717.349 795.407C714.618 787.102 710.096 781.707 705.82 781.707H662.168C657.893 781.707 653.371 787.102 650.64 795.407C650.299 796.324 649.618 797.073 648.737 797.497C647.857 797.922 646.846 797.99 645.917 797.686C644.988 797.382 644.213 796.73 643.753 795.867C643.294 795.004 643.187 793.997 643.454 793.057C647.349 781.215 654.333 774.163 662.168 774.163H705.82C713.655 774.163 720.64 781.215 724.535 793.057C724.846 794.01 724.766 795.047 724.312 795.941C723.859 796.835 723.069 797.513 722.117 797.825C721.743 797.957 721.35 798.025 720.953 798.026V798.026Z" fill="#263238"/>
<path d="M657.871 797.69C657.871 795.548 657.235 793.453 656.045 791.671C654.854 789.889 653.162 788.501 651.182 787.68C649.203 786.86 647.024 786.646 644.922 787.064C642.821 787.482 640.89 788.514 639.375 790.029C637.86 791.544 636.828 793.475 636.41 795.577C635.992 797.678 636.206 799.857 637.026 801.837C637.846 803.816 639.235 805.509 641.017 806.699C642.798 807.89 644.893 808.525 647.036 808.525C649.91 808.525 652.665 807.384 654.697 805.352C656.729 803.32 657.871 800.564 657.871 797.69V797.69Z" fill="#263238"/>
<path d="M731.788 797.69C731.788 795.548 731.153 793.453 729.962 791.671C728.772 789.889 727.08 788.501 725.1 787.68C723.12 786.86 720.942 786.646 718.84 787.064C716.738 787.482 714.808 788.514 713.292 790.029C711.777 791.544 710.745 793.475 710.327 795.577C709.909 797.678 710.124 799.857 710.944 801.837C711.764 803.816 713.152 805.509 714.934 806.699C716.716 807.89 718.811 808.525 720.954 808.525C723.827 808.525 726.583 807.384 728.615 805.352C730.647 803.32 731.788 800.564 731.788 797.69V797.69Z" fill="#263238"/>
<path d="M450.802 649.005L488.925 665.548L467.076 691.045L435.199 677.233L450.802 649.005Z" fill="#FFB573"/>
<path opacity="0.2" d="M450.824 649.005L488.947 665.57L476.702 679.852L442.072 664.832L450.824 649.005Z" fill="black"/>
<path d="M472.495 704.32L468.197 703.335C466.934 703.048 465.761 702.454 464.781 701.607C463.801 700.76 463.045 699.685 462.578 698.477V698.477L459.824 699.753C458.234 700.506 456.436 700.703 454.72 700.313L395.913 686.881C396.07 681.598 400.726 675.689 400.726 675.689C400.726 675.689 426.895 680.166 434.461 673.92C434.76 673.711 435.111 673.589 435.475 673.569C435.839 673.549 436.202 673.632 436.521 673.808C441.267 676.047 459.981 684.128 471.98 682.986C472.351 682.957 472.725 683.015 473.07 683.156C473.415 683.296 473.723 683.516 473.969 683.796C474.214 684.076 474.391 684.41 474.485 684.771C474.579 685.132 474.587 685.51 474.509 685.874C473.393 691.966 472.72 698.131 472.495 704.32Z" fill="#263238"/>
<path d="M435.491 675.621C435.406 675.621 435.323 675.603 435.246 675.568C435.169 675.534 435.1 675.483 435.043 675.42C434.797 675.151 428.82 668.704 428.999 665.055C429.008 664.69 429.093 664.331 429.247 664C429.401 663.669 429.621 663.373 429.894 663.13C430.202 662.822 430.6 662.618 431.03 662.55C431.461 662.482 431.902 662.552 432.29 662.75C434.864 664.048 436.476 671.234 436.14 675.062C436.124 675.181 436.076 675.294 436.001 675.389C435.926 675.483 435.827 675.556 435.715 675.599L435.491 675.621ZM431.372 663.779C431.248 663.786 431.128 663.818 431.016 663.871C430.905 663.925 430.805 664 430.723 664.093C430.575 664.219 430.457 664.377 430.38 664.556C430.302 664.734 430.266 664.928 430.275 665.123C430.163 667.361 433.006 671.144 434.909 673.383C434.775 669.689 433.364 664.697 431.73 663.869C431.618 663.816 431.496 663.785 431.372 663.779V663.779Z" fill="#263238"/>
<path d="M430.856 675.89C428.359 676.099 425.855 675.578 423.648 674.39C423.357 674.174 423.115 673.899 422.937 673.583C422.76 673.266 422.651 672.916 422.618 672.555C422.531 672.113 422.592 671.655 422.79 671.251C422.988 670.846 423.313 670.518 423.715 670.316C426.267 669.018 433.028 671.95 435.915 674.48C436.008 674.559 436.074 674.664 436.108 674.781C436.142 674.897 436.141 675.022 436.105 675.138C436.07 675.254 436.001 675.357 435.908 675.435C435.814 675.513 435.7 675.563 435.58 675.577C434.012 675.768 432.435 675.872 430.856 675.89ZM425.327 671.279C424.944 671.266 424.562 671.335 424.208 671.48C423.984 671.615 423.738 671.816 423.805 672.443C423.828 672.633 423.889 672.816 423.986 672.982C424.082 673.147 424.211 673.291 424.365 673.405C426.066 674.771 430.856 674.749 433.789 674.525C431.274 672.771 428.37 671.656 425.327 671.279V671.279Z" fill="#263238"/>
<path d="M793.191 529.062L776.782 563.245C752.695 613.703 693.351 639.066 645.961 619.209C618.292 607.614 588.094 583.101 567.611 571.886C550.038 610.412 517.131 652.9 491.947 682.471L440.998 656.84C460.025 613.165 489.642 544.912 508.446 500.677C511.794 492.834 517.285 486.092 524.289 481.226C531.293 476.36 539.527 473.566 548.046 473.165C632.753 470.882 793.191 529.062 793.191 529.062Z" fill="#DFE2ED"/>
<path d="M740.584 175.235C731.026 172.078 720.124 178.145 719.99 199.501C719.855 220.857 739.264 232.296 747.457 204.694C752.382 188.039 747.681 177.541 740.584 175.235Z" fill="#E0E0E0"/>
<path d="M545.583 760.821L587.086 758.874L578.736 791.378L544.039 793.034L545.583 760.821Z" fill="#FFB573"/>
<path opacity="0.2" d="M545.606 760.821L587.109 758.874L582.431 777.096L544.733 778.887L545.606 760.821Z" fill="black"/>
<path d="M585.095 808.525H580.617C579.323 808.523 578.048 808.201 576.908 807.588C575.768 806.975 574.796 806.09 574.081 805.011L571.686 806.891C570.293 807.964 568.585 808.546 566.828 808.548H506.566C505.536 803.377 508.804 796.616 508.804 796.616C508.804 796.616 535.309 795.206 541.286 787.438C541.502 787.141 541.796 786.91 542.137 786.772C542.477 786.633 542.849 786.593 543.211 786.654C548.337 787.729 568.395 791.534 579.834 787.751C580.188 787.639 580.563 787.612 580.929 787.671C581.295 787.73 581.642 787.874 581.943 788.092C582.243 788.31 582.488 788.595 582.659 788.924C582.829 789.254 582.919 789.619 582.923 789.99C583.199 796.213 583.924 802.407 585.095 808.525V808.525Z" fill="#263238"/>
<path d="M542.516 788.759C542.387 788.766 542.26 788.726 542.158 788.647C541.845 788.445 534.614 783.565 533.965 779.872C533.893 779.516 533.895 779.149 533.972 778.795C534.049 778.44 534.199 778.106 534.413 777.812C534.641 777.443 534.981 777.155 535.383 776.99C535.785 776.825 536.229 776.792 536.651 776.894C539.427 777.611 542.606 784.237 543.121 788.087C543.134 788.211 543.111 788.335 543.056 788.447C543 788.558 542.914 788.65 542.807 788.714C542.717 788.757 542.615 788.773 542.516 788.759ZM536.136 778.081C535.988 778.097 535.846 778.148 535.721 778.23C535.597 778.311 535.493 778.421 535.42 778.551C535.308 778.712 535.232 778.895 535.197 779.089C535.162 779.282 535.17 779.48 535.218 779.67C535.599 781.909 539.203 784.931 541.576 786.699C540.636 783.118 538.129 778.573 536.36 778.126L536.136 778.081Z" fill="#263238"/>
<path d="M533.54 790.662C532.604 790.701 531.672 790.533 530.809 790.169C530.478 790.02 530.182 789.803 529.939 789.534C529.696 789.264 529.512 788.947 529.399 788.602C529.237 788.195 529.206 787.748 529.31 787.322C529.414 786.897 529.649 786.515 529.981 786.229C532.219 784.394 539.427 785.759 542.808 787.572C542.912 787.635 542.997 787.724 543.056 787.83C543.115 787.936 543.145 788.055 543.144 788.177C543.135 788.299 543.09 788.416 543.014 788.511C542.938 788.607 542.835 788.678 542.718 788.714C539.77 789.806 536.678 790.462 533.54 790.662ZM533.54 786.587C532.59 786.51 531.638 786.72 530.809 787.192C530.608 787.371 530.428 787.617 530.608 788.221C530.675 788.403 530.779 788.569 530.914 788.707C531.049 788.846 531.211 788.955 531.391 789.027C533.361 789.99 537.995 788.915 540.815 788.042C538.484 787.143 536.016 786.651 533.518 786.587H533.54Z" fill="#263238"/>
<path d="M816.92 515.519L816.651 551.627C816.226 604.883 771.074 652.363 717.17 656.437C685.695 658.676 643.163 659.482 618.673 658.989C615.113 696.284 603.45 740.227 591.81 772.059L538.801 768.365C537.413 723.169 535.376 659.079 533.674 616.568C533.003 600.003 543.278 583.706 559.082 575.916C638.439 536.786 816.92 515.519 816.92 515.519Z" fill="#DFE2ED"/>
<path opacity="0.1" d="M580.393 772.529C580.275 772.551 580.153 772.551 580.035 772.529C579.717 772.431 579.452 772.211 579.296 771.917C579.141 771.623 579.109 771.28 579.207 770.962C587.221 744.614 601.592 662.369 602.286 624.605C602.308 624.245 602.468 623.908 602.734 623.665C602.87 623.552 603.027 623.468 603.197 623.417C603.366 623.367 603.544 623.352 603.719 623.373C681.151 633.671 733.556 630.089 755.382 613.255C793.639 583.527 793.079 535.398 783.386 510.281C783.265 509.969 783.272 509.622 783.406 509.316C783.54 509.009 783.791 508.769 784.103 508.647C784.414 508.525 784.762 508.532 785.068 508.667C785.375 508.801 785.615 509.052 785.737 509.363C795.698 535.152 796.258 584.624 756.926 615.203C734.407 632.686 683.233 636.335 604.704 626.015C603.741 664.541 589.482 745.51 581.535 771.634C581.464 771.885 581.315 772.107 581.11 772.267C580.905 772.428 580.654 772.52 580.393 772.529Z" fill="black"/>
<path opacity="0.2" d="M565.551 576.319C556.456 594.548 545.916 612.02 534.032 628.567C534.3 636.021 534.591 643.923 534.882 652.139C553.642 622.523 565.573 576.274 565.573 576.274L565.551 576.319Z" fill="black"/>
<path d="M674.859 355.932L672.867 357.208L671.255 358.193L668.121 360.006C666.04 361.193 663.958 362.245 661.898 363.275C657.757 365.379 653.504 367.192 649.183 368.916C640.412 372.391 631.336 375.044 622.074 376.84C617.351 377.758 612.493 378.407 607.568 378.877C602.533 379.263 597.48 379.345 592.435 379.124C587.211 378.914 582.01 378.308 576.877 377.31C571.601 376.24 566.42 374.743 561.387 372.833L559.327 372.072C556.211 370.927 553.4 369.082 551.112 366.677C546.237 361.553 542.512 355.448 540.187 348.769C538.349 343.482 537.242 337.969 536.897 332.382C536.346 323.367 537.1 314.319 539.135 305.52C540.91 297.731 543.321 290.102 546.343 282.709C547.821 279.104 549.433 275.59 551.134 272.143L553.798 266.994C554.783 265.27 555.678 263.726 556.82 261.778C558.454 259.025 560.952 256.889 563.926 255.702C566.899 254.514 570.182 254.343 573.263 255.213C576.344 256.084 579.051 257.947 580.964 260.515C582.876 263.083 583.887 266.21 583.839 269.411V271.65C583.839 273.016 583.616 274.829 583.526 276.441L583.145 281.433C582.877 284.746 582.72 288.148 582.563 291.327C582.407 294.506 582.34 297.819 582.317 300.953C582.295 304.087 582.317 307.198 582.519 310.153C582.666 315.367 583.471 320.542 584.914 325.555C585.323 327.014 586.007 328.381 586.929 329.584C587.555 330.233 587.846 329.92 587.511 329.181L577.236 323.025C582.285 323.938 587.431 324.201 592.547 323.809C595.351 323.604 598.139 323.231 600.897 322.689C603.74 322.197 606.65 321.592 609.583 320.787C612.515 319.981 615.448 319.04 618.425 318.055C621.403 317.071 624.357 315.817 627.38 314.653C630.402 313.489 633.267 312.079 636.199 310.735C637.632 310.064 639.065 309.347 640.43 308.654L642.445 307.624L643.385 307.154C643.587 307.042 644.057 306.773 643.9 306.907C650.401 302.802 658.267 301.447 665.767 303.141C673.267 304.835 679.787 309.439 683.892 315.94C687.998 322.441 689.352 330.307 687.658 337.807C685.964 345.307 681.361 351.827 674.859 355.932V355.932Z" fill="#FFB573"/>
<path d="M561.006 277.179L577.706 277.963C594.428 272.523 583.705 252.242 583.705 252.242L582.474 240.422C582.107 238.358 581.028 236.489 579.425 235.139C577.821 233.789 575.795 233.044 573.699 233.035L562.036 232.385C556.708 232.094 552.097 235.654 551.828 240.265L551.179 250.607C550.997 253.622 551.558 256.635 552.813 259.383L561.006 277.179Z" fill="#FFB573"/>
<path d="M702.91 282.373C695.858 272.926 673.003 275.142 659.795 290.073C654.333 289.85 632.932 309.213 616.546 313.354C600.16 317.496 588.34 337.307 592.907 348.478C601.346 369.095 607.077 378.967 622.321 380.623C637.566 382.28 657.624 372.408 673.808 360.297C689.993 348.187 715.356 299.14 702.91 282.373Z" fill="#E0E0E0"/>
<path d="M609.517 312.951C596.78 304.758 584.266 318.503 584.266 335.785C584.266 353.067 588.318 367.796 594.519 377.937C600.72 388.078 611.666 387.227 621.874 386.757C630.694 386.332 635.037 383.153 630.828 375.139C626.62 367.125 611.106 355.529 608.801 333.009C607.525 321.615 615.405 316.735 609.517 312.951Z" fill="#FAFAFA"/>
<path d="M606.248 473.121C603.517 475.942 601.547 486.866 607.099 503.23C610.927 514.579 625.992 508.916 625.992 508.916C625.992 508.916 628.634 529.488 647.393 533.898C678.308 541.151 794.915 539.203 814.726 523.824C752.583 523.175 606.248 473.121 606.248 473.121Z" fill="#FAFAFA"/>
<path d="M710.835 274.851C741.342 275.023 771.771 277.975 801.743 283.671C806.686 284.705 811.367 286.736 815.499 289.64C819.631 292.545 823.127 296.261 825.773 300.563C828.42 304.865 830.161 309.661 830.89 314.659C831.62 319.656 831.322 324.75 830.016 329.629C807.63 414.896 820.256 508.535 818.487 525.615C818.487 525.615 639.559 551.381 612.136 498.193C575.312 438.02 637.992 398.711 659.415 314.183C665.078 291.842 687.8 274.717 710.835 274.851Z" fill="#263238"/>
<path opacity="0.1" d="M710.835 274.851C741.342 275.023 771.771 277.975 801.743 283.671C806.686 284.705 811.367 286.736 815.499 289.64C819.631 292.545 823.127 296.261 825.773 300.563C828.42 304.865 830.161 309.661 830.89 314.659C831.62 319.656 831.322 324.75 830.016 329.629C807.63 414.896 820.256 508.535 818.487 525.615C818.487 525.615 639.559 551.381 612.136 498.193C575.312 438.02 637.992 398.711 659.415 314.183C665.078 291.842 687.8 274.717 710.835 274.851Z" fill="white"/>
<path opacity="0.4" d="M770.672 278.813L770.359 278.679L769.374 278.343L769.105 278.545C754.084 276.754 738.437 275.59 723.505 275.12C719.856 274.985 716.252 274.918 712.715 274.873C708.042 277.505 704.444 281.697 702.552 286.715C698.075 298.043 701.254 310.668 711.35 320.473L712.178 321.279L713.365 321.167C735.303 319.04 776.313 301.468 778.037 287.924C778.328 285.641 777.746 281.388 770.672 278.813Z" fill="#FAFAFA"/>
<path d="M834.269 341.381L835.903 344.515L837.358 347.381C838.321 349.283 839.172 351.186 840.067 353.089C841.836 356.872 843.403 360.7 844.992 364.55C848.036 372.251 850.879 380.064 853.252 388.078C854.483 392.062 855.491 396.092 856.7 400.166C857.909 404.24 858.647 408.359 859.498 412.545C861.27 420.986 862.555 429.522 863.348 438.11L863.572 440.348C863.883 443.655 863.486 446.99 862.408 450.131C860.695 455.046 858.084 459.601 854.707 463.562C851.84 466.927 848.482 469.84 844.746 472.203C839.13 475.707 832.961 478.235 826.501 479.68C816.814 481.818 806.873 482.572 796.975 481.918C788.202 481.407 779.478 480.255 770.873 478.471C766.665 477.643 762.523 476.613 758.404 475.516C754.285 474.419 750.345 473.278 746.003 471.666C742.861 470.551 740.197 468.394 738.451 465.554C736.706 462.714 735.985 459.362 736.409 456.056C736.833 452.75 738.375 449.688 740.78 447.38C743.186 445.072 746.308 443.657 749.629 443.37H750.48L761.673 442.43C765.501 442.161 769.284 441.781 773.022 441.4C776.761 441.02 780.476 440.594 784.103 440.124C787.729 439.654 791.266 439.095 794.691 438.423C800.739 437.451 806.646 435.752 812.286 433.364C814.346 432.357 815.801 431.125 815.667 430.879C815.532 430.633 815.13 430.879 814.436 431.461C813.58 432.299 812.896 433.295 812.421 434.394L811.481 446.348C809.802 439.811 808.033 433.274 805.884 426.671C804.832 423.38 803.646 419.955 802.459 416.776C801.273 413.597 800.221 410.06 798.833 406.859C796.236 400.278 793.662 393.652 790.863 387.093L786.655 377.31L782.581 368.11L782.066 366.901C779.073 360.039 778.853 352.285 781.451 345.265C784.05 338.244 789.265 332.502 796.004 329.243C802.743 325.983 810.483 325.459 817.6 327.781C824.717 330.102 830.659 335.088 834.18 341.695L834.269 341.381Z" fill="#FFB573"/>
<path d="M698.635 423.805H665.235C663.529 423.805 662.146 425.188 662.146 426.894V470.009C662.146 471.715 663.529 473.098 665.235 473.098H698.635C700.341 473.098 701.724 471.715 701.724 470.009V426.894C701.724 425.188 700.341 423.805 698.635 423.805Z" fill="#DFE2ED"/>
<path d="M698.634 433.364C700.665 433.286 702.692 433.618 704.592 434.342C706.492 435.065 708.227 436.165 709.692 437.575C711.157 438.984 712.323 440.675 713.119 442.546C713.915 444.417 714.325 446.43 714.325 448.463C714.325 450.496 713.915 452.509 713.119 454.379C712.323 456.25 711.157 457.941 709.692 459.351C708.227 460.761 706.492 461.861 704.592 462.584C702.692 463.308 700.665 463.64 698.634 463.562H698.432C696.4 463.64 694.374 463.308 692.474 462.584C690.573 461.861 688.839 460.761 687.374 459.351C685.908 457.941 684.743 456.25 683.947 454.379C683.151 452.509 682.74 450.496 682.74 448.463C682.74 446.43 683.151 444.417 683.947 442.546C684.743 440.675 685.908 438.984 687.374 437.575C688.839 436.165 690.573 435.065 692.474 434.342C694.374 433.618 696.4 433.286 698.432 433.364H698.701H698.634ZM698.701 428.887H698.432C695.797 428.798 693.17 429.24 690.709 430.187C688.248 431.134 686.003 432.567 684.107 434.4C682.212 436.232 680.704 438.428 679.674 440.856C678.645 443.283 678.114 445.893 678.114 448.53C678.114 451.167 678.645 453.777 679.674 456.205C680.704 458.632 682.212 460.828 684.107 462.661C686.003 464.493 688.248 465.926 690.709 466.873C693.17 467.82 695.797 468.263 698.432 468.174H698.701C701.336 468.263 703.962 467.82 706.423 466.873C708.884 465.926 711.13 464.493 713.025 462.661C714.921 460.828 716.429 458.632 717.458 456.205C718.488 453.777 719.018 451.167 719.018 448.53C719.018 445.893 718.488 443.283 717.458 440.856C716.429 438.428 714.921 436.232 713.025 434.4C711.13 432.567 708.884 431.134 706.423 430.187C703.962 429.24 701.336 428.798 698.701 428.887V428.887Z" fill="#DFE2ED"/>
<path d="M751.062 451.161L750.927 461.727C744.503 478.09 724.893 466.204 724.893 466.204L713.163 464.279C711.124 463.789 709.323 462.6 708.071 460.919C706.819 459.238 706.197 457.171 706.313 455.078V443.393C706.182 440.988 706.992 438.627 708.571 436.81C710.15 434.992 712.375 433.861 714.774 433.655H725.296C728.317 433.675 731.286 434.444 733.936 435.894L745.778 442.206C747.387 443.081 748.728 444.376 749.658 445.953C750.588 447.53 751.073 449.33 751.062 451.161V451.161Z" fill="#FFB573"/>
<path d="M808.705 292.513C820.3 290.275 835.567 307.445 835.254 327.39C839.418 330.905 846.626 360.208 855.849 374.4C865.072 388.593 860.326 411.113 849.491 416.239C829.344 425.708 818.42 429.111 806.063 420.022C793.706 410.934 779.514 389.779 777.454 369.699C774.544 340.262 788.132 296.386 808.705 292.513Z" fill="#E0E0E0"/>
<path d="M792.742 408.471C785.4 421.723 799.928 433.342 817.075 432.334C834.223 431.327 848.729 426.201 858.467 419.351C868.204 412.501 866.637 401.666 865.473 391.48C864.488 382.705 860.996 378.586 853.318 383.31C845.64 388.033 835.029 404.263 812.71 407.934C801.517 409.904 796.122 402.36 792.742 408.471Z" fill="#FAFAFA"/>
<path d="M707.789 285.708C710.49 281.19 714.64 277.719 719.564 275.859C721.63 271.325 722.073 266.219 720.818 261.397L776.155 247.429C770.671 265.113 766.373 279.082 772.506 288.193C761.448 294.058 741.166 304.557 719.9 302.654C698.634 300.751 703.872 293.028 707.789 285.708Z" fill="#FFB573"/>
<path opacity="0.2" d="M721.154 263.099L762.03 263.211C748.464 276.037 728.832 279.977 720.37 273.911C721.538 270.43 721.808 266.711 721.154 263.099V263.099Z" fill="black"/>
<path d="M788.423 220.409C780.544 245.28 774.656 261.979 757.33 268.986C722.923 282.865 708.887 264.733 709.178 237.96C709.447 213.85 722.296 177.25 749.472 173.623C755.501 172.816 761.635 173.551 767.302 175.76C772.97 177.969 777.983 181.579 781.875 186.254C785.767 190.928 788.409 196.513 789.554 202.487C790.699 208.461 790.31 214.627 788.423 220.409Z" fill="#FFB573"/>
<path d="M771.969 239.974C761.739 235.497 764.828 232.386 764.828 232.386C764.828 232.386 773.111 223.163 774.432 217.79C775.752 212.418 767.716 200.934 770.559 194.912C773.402 188.89 803.443 185.958 816.181 201.337C813.196 201.994 810.149 202.324 807.092 202.322C809.661 205.153 811.315 208.693 811.838 212.479C812.361 216.266 811.729 220.122 810.025 223.543C804.16 235.923 782.871 244.877 771.969 239.974Z" fill="#E0E0E0"/>
<path d="M716.34 242.571L742.778 242.974C742.778 242.974 739.039 249.354 727.936 250.339C716.833 251.324 716.34 242.571 716.34 242.571Z" fill="#263238"/>
<path d="M716.879 242.571C717.707 244.272 720.215 246.824 727.803 246.153C731.943 245.892 735.986 244.795 739.69 242.929C735.012 242.884 725.632 242.728 716.879 242.571Z" fill="white"/>
<path opacity="0.2" d="M754.039 217.007C757.143 216.395 760.363 217.039 762.993 218.797C759.921 218.782 756.881 218.174 754.039 217.007Z" fill="black"/>
<path opacity="0.2" d="M753.748 219.178C755.185 219.2 756.599 219.533 757.894 220.155C759.189 220.778 760.333 221.674 761.247 222.782C758.52 222.128 755.963 220.899 753.748 219.178V219.178Z" fill="black"/>
<path opacity="0.2" d="M719.184 208.634C719.184 208.634 717.46 205.836 715.692 206.955C716.135 207.451 716.672 207.854 717.271 208.142C717.87 208.43 718.52 208.598 719.184 208.634V208.634Z" fill="black"/>
<path opacity="0.2" d="M718.58 210.582C718.58 210.582 717.215 208.075 715.782 210.045C716.132 210.419 716.591 210.673 717.094 210.769C717.597 210.866 718.117 210.8 718.58 210.582V210.582Z" fill="black"/>
<path opacity="0.2" d="M732.928 187.144C740.647 187.213 748.308 188.497 755.627 190.95C747.995 190.109 740.417 188.838 732.928 187.144V187.144Z" fill="black"/>
<path opacity="0.2" d="M729.37 190.636C729.37 190.636 746.876 192.606 754.957 197.867C746.223 196.252 737.658 193.831 729.37 190.636Z" fill="black"/>
<path d="M791.714 246.556C789.673 249.064 787.157 251.146 784.311 252.683C781.465 254.219 778.344 255.18 775.126 255.51C766.463 256.338 763.598 248.212 767.224 240.847C770.47 234.132 778.91 225.782 786.991 228.378C795.072 230.975 796.684 240.265 791.714 246.556Z" fill="#FFB573"/>
<path d="M747.01 216.648C746.495 218.708 744.995 220.096 743.652 219.76C742.309 219.424 741.637 217.521 742.152 215.395C742.667 213.268 744.167 211.947 745.51 212.306C746.853 212.664 747.525 214.611 747.01 216.648Z" fill="#263238"/>
<path d="M725.139 211.477C724.624 213.537 723.124 214.925 721.781 214.567C720.438 214.208 719.767 212.328 720.281 210.224C720.796 208.12 722.296 206.776 723.639 207.135C724.982 207.493 725.654 209.418 725.139 211.477Z" fill="#263238"/>
<path d="M731.809 214.902L727.534 232.207C727.534 232.207 720.549 232.207 717.393 228.199C721.915 219.85 731.809 214.902 731.809 214.902Z" fill="#ED893E"/>
<path d="M755.494 211.612C755.692 211.666 755.9 211.666 756.098 211.612C756.251 211.55 756.39 211.459 756.507 211.343C756.624 211.227 756.717 211.089 756.779 210.937C756.842 210.784 756.874 210.621 756.872 210.456C756.87 210.291 756.835 210.129 756.77 209.977C756.042 208.13 754.884 206.482 753.394 205.17C751.903 203.859 750.121 202.92 748.196 202.433C748.03 202.393 747.857 202.387 747.689 202.415C747.521 202.444 747.36 202.507 747.216 202.6C747.073 202.693 746.95 202.814 746.856 202.957C746.761 203.099 746.696 203.259 746.666 203.427C746.635 203.595 746.639 203.768 746.678 203.934C746.716 204.101 746.789 204.258 746.89 204.395C746.991 204.533 747.12 204.648 747.267 204.734C747.415 204.82 747.579 204.875 747.748 204.896V204.896C749.262 205.309 750.657 206.071 751.824 207.121C752.99 208.17 753.894 209.478 754.464 210.94C754.562 211.132 754.708 211.296 754.889 211.414C755.07 211.531 755.278 211.6 755.494 211.612V211.612Z" fill="#E0E0E0"/>
<path d="M714.864 202.277C715.063 202.326 715.272 202.325 715.471 202.274C715.67 202.223 715.853 202.124 716.005 201.986C717.113 200.886 718.465 200.064 719.951 199.585C721.437 199.107 723.015 198.986 724.557 199.232C724.714 199.272 724.878 199.28 725.038 199.255C725.199 199.23 725.352 199.173 725.49 199.087C725.628 199.002 725.747 198.889 725.841 198.756C725.934 198.624 726 198.473 726.034 198.315C726.108 197.994 726.054 197.657 725.882 197.377C725.71 197.096 725.435 196.894 725.116 196.815C723.179 196.464 721.185 196.584 719.303 197.164C717.422 197.745 715.707 198.769 714.304 200.15C714.07 200.385 713.939 200.703 713.939 201.034C713.939 201.366 714.07 201.684 714.304 201.919C714.456 202.085 714.649 202.209 714.864 202.277V202.277Z" fill="#E0E0E0"/>
<path d="M581.892 279.261C594.092 271.695 592.839 258.845 594.988 248.615C595.368 246.869 591.383 244.317 589.033 246.511C587.478 247.74 586.185 249.269 585.232 251.007C584.278 252.745 583.683 254.657 583.481 256.629C579.004 257.301 567.61 263.479 569.401 276.038C573.03 278.603 577.474 279.75 581.892 279.261V279.261Z" fill="#FFB573"/>
<path d="M725.117 234.87C725.117 234.87 723.908 239.347 727.467 240.31C731.027 241.273 740.249 236.124 747.838 241.049C745.174 237.288 736.824 231.915 725.117 234.87Z" fill="#E0E0E0"/>
<path d="M721.289 234.132C721.289 234.132 720.684 238.273 717.573 238.609C714.461 238.944 709.066 233.37 701.455 236.93C704.135 234.592 707.436 233.084 710.957 232.587C714.478 232.09 718.067 232.627 721.289 234.132V234.132Z" fill="#E0E0E0"/>
<path d="M713.117 318.66C742.218 315.817 792.608 289.559 769.82 281.186C755.47 292.581 731.361 297.125 720.012 297.147C715.803 293.096 714.482 281.791 719.564 275.859C707.677 274.851 692.746 298.849 713.117 318.66Z" fill="#FAFAFA"/>
<path d="M720.012 297.147C730.578 289.872 764.045 272.21 773.424 272.366C774.526 275.996 774.703 279.843 773.939 283.559C773.939 283.559 761.582 297.08 720.012 297.147Z" fill="#E0E0E0"/>
<path d="M720.012 297.147C720.012 297.147 721.646 274.336 719.586 269.523C717.854 270.198 716.325 271.309 715.149 272.749C713.972 274.188 713.187 275.907 712.871 277.739C712.871 277.739 715.064 293.655 720.012 297.147Z" fill="#E0E0E0"/>
<path d="M799.391 194.24C784.236 196.053 739.331 191.823 724.646 174.899C709.961 157.975 720.661 146.492 736.376 156.274C736.376 156.274 725.944 142.082 742.711 145.641C758.538 148.999 777.274 176.488 801.07 175.324C821.329 174.317 814.367 192.517 799.391 194.24Z" fill="#E0E0E0"/>
<path d="M792.318 255.062C785.267 260.771 775.977 260.972 771.567 255.532C767.157 250.093 769.328 241.049 776.335 235.385C783.342 229.722 792.676 229.475 797.086 234.915C801.496 240.355 799.347 249.354 792.318 255.062Z" fill="#263238"/>
<path d="M733.936 263.793C733.131 263.487 732.427 262.962 731.905 262.276C731.383 261.591 731.063 260.773 730.982 259.916C730.901 259.058 731.062 258.195 731.447 257.424C731.831 256.653 732.424 256.005 733.157 255.554C733.891 255.102 734.737 254.866 735.598 254.87C736.46 254.875 737.302 255.121 738.031 255.58C738.76 256.039 739.346 256.693 739.722 257.468C740.098 258.243 740.25 259.108 740.159 259.965C739.825 261.288 738.988 262.428 737.825 263.143C736.663 263.858 735.268 264.091 733.936 263.793V263.793Z" fill="#263238"/>
<path d="M791.848 240.064C791.458 240.061 791.073 239.969 790.724 239.794C790.374 239.62 790.07 239.367 789.833 239.056C789.634 238.795 789.487 238.496 789.403 238.178C789.318 237.86 789.297 237.528 789.341 237.202C789.384 236.875 789.492 236.561 789.657 236.276C789.822 235.991 790.042 235.742 790.304 235.542C795.967 231.221 799.415 220.476 798.922 208.679C798.609 201.202 795.99 182.6 778.775 171.608C778.496 171.432 778.254 171.202 778.063 170.932C777.873 170.663 777.737 170.358 777.665 170.036C777.592 169.714 777.583 169.38 777.639 169.055C777.695 168.729 777.815 168.418 777.991 168.139C778.168 167.859 778.397 167.618 778.667 167.427C778.937 167.236 779.242 167.101 779.564 167.028C779.886 166.955 780.22 166.947 780.545 167.003C780.871 167.059 781.182 167.179 781.461 167.355C795.027 175.996 803.242 190.994 803.981 208.478C804.541 221.909 800.4 234.087 793.393 239.437C792.965 239.817 792.42 240.039 791.848 240.064V240.064Z" fill="#263238"/>
<path d="M746.406 263.793C742.73 263.787 739.058 263.541 735.414 263.054C735.249 263.035 735.089 262.983 734.945 262.901C734.8 262.819 734.673 262.71 734.57 262.578C734.468 262.447 734.393 262.297 734.35 262.136C734.307 261.976 734.295 261.808 734.317 261.644C734.367 261.317 734.542 261.022 734.805 260.821C735.068 260.621 735.399 260.53 735.728 260.569C762.59 264.084 778.641 253.048 778.798 252.936C779.071 252.743 779.409 252.666 779.739 252.723C780.068 252.779 780.362 252.965 780.555 253.238C780.748 253.511 780.824 253.849 780.768 254.179C780.711 254.509 780.526 254.802 780.253 254.995C779.671 255.42 767.538 263.793 746.406 263.793Z" fill="#263238"/>
<path d="M673.809 446.706V442.766H671.996L672.936 437.684H669.332L668.414 442.766H665.526L666.466 437.684H662.773L662.146 441.154V459.242H662.616L663.534 454.25H666.399L665.481 459.242H669.13L670.048 454.25H673.809V450.31H670.63L671.302 446.706H673.809ZM667.093 450.31H664.25L664.922 446.706H667.742L667.093 450.31Z" fill="white"/>
<path d="M687.688 437.662V458.906H682.36V444.982C681.595 445.656 680.762 446.249 679.875 446.751C678.898 447.261 677.88 447.688 676.831 448.027V443.236C678.357 442.766 679.778 442.006 681.017 440.997C681.993 440.068 682.757 438.937 683.255 437.684L687.688 437.662Z" fill="white"/>
<path d="M879.399 473.121H238.408V490.559H879.399V473.121Z" fill="#DFE2ED"/>
<path opacity="0.5" d="M879.399 473.121H238.408V490.559H879.399V473.121Z" fill="white"/>
<path opacity="0.5" d="M879.399 473.121H733.444V490.559H879.399V473.121Z" fill="white"/>
<path d="M730.869 490.537H733.421V473.098H730.869V490.537Z" fill="white"/>
<path d="M868.496 490.559L887.837 815.219H880.159L856.945 502.155H755.873L732.682 815.219H725.004L744.322 490.559H868.496Z" fill="#DFE2ED"/>
<path opacity="0.5" d="M868.496 490.559L887.837 815.219H880.159L856.945 502.155H755.873L732.682 815.219H725.004L744.322 490.559H868.496Z" fill="white"/>
<path d="M373.997 490.559L393.338 815.219H385.66L362.468 502.155H261.375L238.183 815.219H230.505L249.846 490.559H373.997Z" fill="#DFE2ED"/>
<path opacity="0.2" d="M373.997 490.559L393.338 815.219H385.66L362.468 502.155H261.375L238.183 815.219H230.505L249.846 490.559H373.997Z" fill="white"/>
<path d="M528.211 427.946H292.132L270.709 284.745H506.81L528.211 427.946Z" fill="#DFE2ED"/>
<path opacity="0.3" d="M396.787 427.947H429.268L421.501 361.954L411.472 389.757L396.787 427.947Z" fill="black"/>
<path opacity="0.3" d="M528.211 427.946H525.503L504.102 284.745H506.811L528.211 427.946Z" fill="black"/>
<path d="M442.587 467.054H378.34V473.121H448.138L442.587 467.054Z" fill="#DFE2ED"/>
<path opacity="0.3" d="M442.587 467.054H378.34V473.121H448.138L442.587 467.054Z" fill="black"/>
<path d="M386.667 385.638L385.772 392.241H383.086C381.754 392.244 380.467 392.717 379.451 393.578C378.435 394.438 377.756 395.63 377.534 396.942L372.005 430.678C371.872 431.481 371.915 432.304 372.131 433.089C372.348 433.874 372.732 434.603 373.258 435.224C373.784 435.846 374.439 436.346 375.177 436.69C375.916 437.033 376.72 437.212 377.534 437.214H379.773V439.923H364.886V385.638H386.667Z" fill="#DFE2ED"/>
<path opacity="0.3" d="M386.667 385.638L385.772 392.241H383.086C381.754 392.244 380.467 392.717 379.451 393.578C378.435 394.438 377.756 395.63 377.534 396.942L372.005 430.678C371.872 431.481 371.915 432.304 372.131 433.089C372.348 433.874 372.732 434.603 373.258 435.224C373.784 435.846 374.439 436.346 375.177 436.69C375.916 437.033 376.72 437.212 377.534 437.214H379.773V439.923H364.886V385.638H386.667Z" fill="black"/>
<path d="M364.886 356.357L345.702 473.121H404.957L424.141 356.357H364.886ZM397.726 398.778L392.175 432.491C391.962 433.806 391.29 435.003 390.277 435.868C389.264 436.733 387.977 437.21 386.645 437.214H375.206C374.391 437.212 373.586 437.032 372.847 436.689C372.108 436.346 371.452 435.846 370.925 435.225C370.397 434.604 370.01 433.875 369.791 433.091C369.572 432.306 369.525 431.482 369.655 430.678L375.206 396.942C375.424 395.628 376.102 394.433 377.119 393.572C378.135 392.711 379.425 392.239 380.758 392.241H392.175C392.996 392.23 393.811 392.4 394.56 392.738C395.309 393.076 395.975 393.574 396.511 394.197C397.047 394.82 397.439 395.554 397.661 396.345C397.882 397.137 397.928 397.967 397.793 398.778H397.726Z" fill="#DFE2ED"/>
<path opacity="0.3" d="M405.023 473.121L402.158 472.74L421.275 356.357H424.208L405.023 473.121Z" fill="black"/>
<path opacity="0.3" d="M396.898 327.704H393.473L389.018 297.931H392.443L396.898 327.704Z" fill="black"/>
<path opacity="0.3" d="M403.277 327.704H399.83L395.397 297.931H398.822L403.277 327.704Z" fill="black"/>
<path opacity="0.3" d="M409.658 327.704H406.211L401.756 297.931H405.203L409.658 327.704Z" fill="black"/>
<path opacity="0.3" d="M416.037 327.704H412.59L408.135 297.931H411.582L416.037 327.704Z" fill="black"/>
<path opacity="0.3" d="M422.396 327.704H418.971L414.516 297.931H417.964L422.396 327.704Z" fill="black"/>
<path opacity="0.3" d="M390.518 327.704H387.093L382.639 297.931H386.064L390.518 327.704Z" fill="black"/>
<path opacity="0.3" d="M384.137 327.704H380.712L376.258 297.931H379.705L384.137 327.704Z" fill="black"/>
<path opacity="0.3" d="M377.758 327.704H374.333L369.878 297.931H373.326L377.758 327.704Z" fill="black"/>
<path opacity="0.3" d="M371.401 327.704H367.954L363.499 297.931H366.946L371.401 327.704Z" fill="black"/>
</svg>
